<svg viewBox="500 568 980 820" xmlns="http://www.w3.org/2000/svg" data-name="Layer 1" id="Layer_1" style="max-height: 500px" width="980" height="820">
  <defs>
    <style>
      .cls-1 {
        fill: #50b22f;
      }
    </style>
  </defs>
  <path d="m1354.02,813.99v259.06c0,68.36-52.17,124.88-118.73,131.78h-108.78v113.63l-74.54-112.92-56.18-93.79h225.66c21.44,0,38.79-17.35,38.79-38.7v-259.06c0-21.31-17.35-38.66-38.79-38.66h-451.19c-21.44,0-38.83,17.35-38.83,38.66v259.06c0,21.35,17.39,38.7,38.83,38.7h77.96v-113.72l127.86,207.51h-205.82c-73.16,0-132.58-59.42-132.58-132.49v-259.06c0-73.03,59.42-132.45,132.58-132.45h451.19c73.16,0,132.58,59.42,132.58,132.45Z" class="cls-1"/>
  <path d="m912.5,839.66h64.93c12.7,0,23.01,10.31,23.01,23.01v64.93c0,12.7-10.31,23.01-23.01,23.01h-64.93c-12.7,0-23.01-10.31-23.01-23.01v-64.92c0-12.7,10.31-23.01,23.01-23.01Z" class="cls-1"/>
  <path d="m1093.95,839.66h64.93c12.7,0,23.01,10.31,23.01,23.01v64.93c0,12.7-10.31,23.01-23.01,23.01h-64.92c-12.7,0-23.01-10.31-23.01-23.01v-64.92c0-12.7,10.31-23.01,23.01-23.01Z" class="cls-1"/>
  <g>
    <path d="m988.06,989.14s15.66,75.82,88.23,77.92c72.57,2.1,88.23-77.92,88.23-77.92,0,0-32.49,36.5-84.13,37.21-27.5.38-56.82-.16-92.34-37.21Z" class="cls-1"/>
    <path d="m979.19,995.99c-1.87-4.46-.79-9.1,2.8-12.32,4.44-3.98,11.5-2.1,13.46,2.78,0,0,0,0,0,0-6.94-2.39-13.02,4-16.26,9.54,0,0,.43.11,0,0h0Z" class="cls-1"/>
    <path d="m1173.56,995.57c-1.92-2.18-3.57-3.89-5.56-5.85-1.86-1.83-4.24-3.46-6.64-4.6-1.49-.71-3.41-1.64-5.02-1.99h0c6.69-4.29,13.03-.78,16.15,5.86.77,1.65,1.06,3.66,1.06,6.58,0,0,0,0,0,0Z" class="cls-1"/>
  </g>
</svg>